HIERARCHY
ROOT Hips
{
  OFFSET 5.72205e-005 65.662 3.42586
  CHANNELS 6 Xposition Yposition Zposition Zrotation Xrotation Yrotation
  JOINT Chest
  {
    OFFSET 0 8.7983 -4.7612
    CHANNELS 6 Xposition Yposition Zposition Zrotation Xrotation Yrotation
    JOINT Chest2
    {
      OFFSET 0 8.0291 0.4195
      CHANNELS 6 Xposition Yposition Zposition Zrotation Xrotation Yrotation
      JOINT Chest3
      {
        OFFSET 0 9.9351 -2.2114
        CHANNELS 6 Xposition Yposition Zposition Zrotation Xrotation Yrotation
        JOINT Neck
        {
          OFFSET 0 22.3885 -0.4656
          CHANNELS 6 Xposition Yposition Zposition Zrotation Xrotation Yrotation
          JOINT Head
          {
            OFFSET -0.0001 12.643 3.4389
            CHANNELS 6 Xposition Yposition Zposition Zrotation Xrotation Yrotation
            End Site
            {
              OFFSET 0.0001 17.6655 0.5274
            }
          }
        }
        JOINT LeftCollar
        {
          OFFSET 2.2603 21.606 7.4023
          CHANNELS 6 Xposition Yposition Zposition Zrotation Xrotation Yrotation
          JOINT LeftShoulder
          {
            OFFSET 13.5163 -1.1332 -5.0146
            CHANNELS 6 Xposition Yposition Zposition Zrotation Xrotation Yrotation
            JOINT LeftElbow
            {
              OFFSET -0.0995 -28.05 -0.2431
              CHANNELS 6 Xposition Yposition Zposition Zrotation Xrotation Yrotation
              JOINT LeftWrist
              {
                OFFSET 0.0679 -23.3996 -0.1402
                CHANNELS 6 Xposition Yposition Zposition Zrotation Xrotation Yrotation
                JOINT LeftFinger1
                {
                  OFFSET 0.7932 -9.069 2.5189
                  CHANNELS 6 Xposition Yposition Zposition Zrotation Xrotation Yrotation
                  JOINT LeftFinger11
                  {
                    OFFSET -0.8272 -3.3923 0.5977
                    CHANNELS 6 Xposition Yposition Zposition Zrotation Xrotation Yrotation
                    JOINT LeftFinger12
                    {
                      OFFSET -0.5649 -2.3158 0.4082
                      CHANNELS 6 Xposition Yposition Zposition Zrotation Xrotation Yrotation
                      End Site
                      {
                        OFFSET -0.4919 -1.6479 0.2673
                      }
                    }
                  }
                }
                JOINT LeftFinger2
                {
                  OFFSET 0.9159 -9.2044 0.2193
                  CHANNELS 6 Xposition Yposition Zposition Zrotation Xrotation Yrotation
                  JOINT LeftFinger21
                  {
                    OFFSET 0.0117 -4.1944 -0.0248
                    CHANNELS 6 Xposition Yposition Zposition Zrotation Xrotation Yrotation
                    JOINT LeftFinger22
                    {
                      OFFSET 0.0071 -2.3249 -0.0142
                      CHANNELS 6 Xposition Yposition Zposition Zrotation Xrotation Yrotation
                      End Site
                      {
                        OFFSET -0.1475 -2.0882 0.0028
                      }
                    }
                  }
                }
                JOINT LeftFinger3
                {
                  OFFSET 0.6113 -8.7231 -2.0637
                  CHANNELS 6 Xposition Yposition Zposition Zrotation Xrotation Yrotation
                  JOINT LeftFinger31
                  {
                    OFFSET -0.1927 -3.8059 -0.2383
                    CHANNELS 6 Xposition Yposition Zposition Zrotation Xrotation Yrotation
                    JOINT LeftFinger32
                    {
                      OFFSET -0.1091 -2.1688 -0.1362
                      CHANNELS 6 Xposition Yposition Zposition Zrotation Xrotation Yrotation
                      End Site
                      {
                        OFFSET -0.2358 -1.9176 -0.0906
                      }
                    }
                  }
                }
                JOINT LeftFinger4
                {
                  OFFSET -0.6151 -8.0947 -3.5641
                  CHANNELS 6 Xposition Yposition Zposition Zrotation Xrotation Yrotation
                  JOINT LeftFinger41
                  {
                    OFFSET -0.4882 -2.341 -0.6462
                    CHANNELS 6 Xposition Yposition Zposition Zrotation Xrotation Yrotation
                    JOINT LeftFinger42
                    {
                      OFFSET -0.3575 -1.7167 -0.4742
                      CHANNELS 6 Xposition Yposition Zposition Zrotation Xrotation Yrotation
                      End Site
                      {
                        OFFSET -0.4187 -1.5237 -0.3496
                      }
                    }
                  }
                }
                JOINT LeftFinger0
                {
                  OFFSET -1.42 -1.8761 1.4223
                  CHANNELS 6 Xposition Yposition Zposition Zrotation Xrotation Yrotation
                  JOINT LeftFinger01
                  {
                    OFFSET -1.1471 -3.4929 2.6334
                    CHANNELS 6 Xposition Yposition Zposition Zrotation Xrotation Yrotation
                    JOINT LeftFinger02
                    {
                      OFFSET -0.823 -2.3 1.6571
                      CHANNELS 6 Xposition Yposition Zposition Zrotation Xrotation Yrotation
                      End Site
                      {
                        OFFSET -0.5822 -1.6914 1.1582
                      }
                    }
                  }
                }
              }
            }
          }
        }
        JOINT RightCollar
        {
          OFFSET -2.2603 21.606 7.4023
          CHANNELS 6 Xposition Yposition Zposition Zrotation Xrotation Yrotation
          JOINT RightShoulder
          {
            OFFSET -13.5187 -1.1334 -5.0155
            CHANNELS 6 Xposition Yposition Zposition Zrotation Xrotation Yrotation
            JOINT RightElbow
            {
              OFFSET 0.0994 -28.0499 -0.2431
              CHANNELS 6 Xposition Yposition Zposition Zrotation Xrotation Yrotation
              JOINT RightWrist
              {
                OFFSET -0.0679 -23.3996 -0.1402
                CHANNELS 6 Xposition Yposition Zposition Zrotation Xrotation Yrotation
                JOINT RightFinger1
                {
                  OFFSET -0.7932 -9.0691 2.5189
                  CHANNELS 6 Xposition Yposition Zposition Zrotation Xrotation Yrotation
                  JOINT RightFinger11
                  {
                    OFFSET 0.8272 -3.3923 0.5977
                    CHANNELS 6 Xposition Yposition Zposition Zrotation Xrotation Yrotation
                    JOINT RightFinger12
                    {
                      OFFSET 0.565 -2.3158 0.4082
                      CHANNELS 6 Xposition Yposition Zposition Zrotation Xrotation Yrotation
                      End Site
                      {
                        OFFSET 0.4919 -1.6479 0.2673
                      }
                    }
                  }
                }
                JOINT RightFinger2
                {
                  OFFSET -0.916 -9.2044 0.2193
                  CHANNELS 6 Xposition Yposition Zposition Zrotation Xrotation Yrotation
                  JOINT RightFinger21
                  {
                    OFFSET -0.0117 -4.1944 -0.0248
                    CHANNELS 6 Xposition Yposition Zposition Zrotation Xrotation Yrotation
                    JOINT RightFinger22
                    {
                      OFFSET -0.0071 -2.3249 -0.0142
                      CHANNELS 6 Xposition Yposition Zposition Zrotation Xrotation Yrotation
                      End Site
                      {
                        OFFSET 0.1475 -2.0882 0.0028
                      }
                    }
                  }
                }
                JOINT RightFinger3
                {
                  OFFSET -0.6113 -8.7231 -2.0637
                  CHANNELS 6 Xposition Yposition Zposition Zrotation Xrotation Yrotation
                  JOINT RightFinger31
                  {
                    OFFSET 0.1927 -3.8059 -0.2383
                    CHANNELS 6 Xposition Yposition Zposition Zrotation Xrotation Yrotation
                    JOINT RightFinger32
                    {
                      OFFSET 0.1091 -2.1688 -0.1362
                      CHANNELS 6 Xposition Yposition Zposition Zrotation Xrotation Yrotation
                      End Site
                      {
                        OFFSET 0.2358 -1.9176 -0.0906
                      }
                    }
                  }
                }
                JOINT RightFinger4
                {
                  OFFSET 0.6151 -8.0947 -3.564
                  CHANNELS 6 Xposition Yposition Zposition Zrotation Xrotation Yrotation
                  JOINT RightFinger41
                  {
                    OFFSET 0.4882 -2.341 -0.6462
                    CHANNELS 6 Xposition Yposition Zposition Zrotation Xrotation Yrotation
                    JOINT RightFinger42
                    {
                      OFFSET 0.3574 -1.7166 -0.4742
                      CHANNELS 6 Xposition Yposition Zposition Zrotation Xrotation Yrotation
                      End Site
                      {
                        OFFSET 0.4187 -1.5237 -0.3496
                      }
                    }
                  }
                }
                JOINT RightFinger0
                {
                  OFFSET 1.4199 -1.8761 1.4221
                  CHANNELS 6 Xposition Yposition Zposition Zrotation Xrotation Yrotation
                  JOINT RightFinger01
                  {
                    OFFSET 1.1472 -3.4929 2.6336
                    CHANNELS 6 Xposition Yposition Zposition Zrotation Xrotation Yrotation
                    JOINT RightFinger02
                    {
                      OFFSET 0.8229 -2.3 1.6571
                      CHANNELS 6 Xposition Yposition Zposition Zrotation Xrotation Yrotation
                      End Site
                      {
                        OFFSET 0.5822 -1.6914 1.1582
                      }
                    }
                  }
                }
              }
            }
          }
        }
      }
    }
  }
  JOINT RightHip
  {
    OFFSET -9.412 3.9771 -0.7758
    CHANNELS 6 Xposition Yposition Zposition Zrotation Xrotation Yrotation
    JOINT RightKnee
    {
      OFFSET -0.7531 -40.938 0
      CHANNELS 6 Xposition Yposition Zposition Zrotation Xrotation Yrotation
      JOINT RightAnkle
      {
        OFFSET 0 -40.1986 0
        CHANNELS 6 Xposition Yposition Zposition Zrotation Xrotation Yrotation
        JOINT RightToe
        {
          OFFSET 0 -4.4182 9.239
          CHANNELS 6 Xposition Yposition Zposition Zrotation Xrotation Yrotation
          End Site
          {
            OFFSET 0 0 6.1981
          }
        }
      }
    }
  }
  JOINT LeftHip
  {
    OFFSET 9.4119 3.9773 -0.7758
    CHANNELS 6 Xposition Yposition Zposition Zrotation Xrotation Yrotation
    JOINT LeftKnee
    {
      OFFSET 0.7532 -40.9383 0
      CHANNELS 6 Xposition Yposition Zposition Zrotation Xrotation Yrotation
      JOINT LeftAnkle
      {
        OFFSET 0 -40.1986 0
        CHANNELS 6 Xposition Yposition Zposition Zrotation Xrotation Yrotation
        JOINT LeftToe
        {
          OFFSET 0 -4.4182 9.239
          CHANNELS 6 Xposition Yposition Zposition Zrotation Xrotation Yrotation
          End Site
          {
            OFFSET 0 0 6.1981
          }
        }
      }
    }
  }
}
MOTION
Frames:	4
Frame Time:	0.0333333
5.72205e-005 65.662 3.42586 0 0 -0 0 8.7983 -4.7612 0 0 -0 0 8.0291 0.4195 0 0 -0 0 9.9351 -2.2114 0 0 -0 0 22.3885 -0.4656 0 0 -0 -0.0001 12.643 3.4389 0 0 -0 2.2603 21.606 7.4023 0 0 -12.5014 13.5163 -1.1332 -5.0146 88.1196 14.2451 10.6914 -0.0995 -28.05 -0.2431 -0.00160068 -0.00239207 0.000740045 0.0679 -23.3996 -0.1402 -8.4365e-005 7.00714e-005 -9.52055e-007 0.7932 -9.069 2.5189 9.93923e-017 -1.98785e-016 -1.59028e-015 -0.8272 -3.3923 0.5977 9.93923e-017 -5.96354e-016 -1.59028e-015 -0.5649 -2.3158 0.4082 -9.93923e-017 -5.96354e-016 -1.59028e-015 0.9159 -9.2044 0.2193 9.93923e-017 -1.98785e-016 -1.59028e-015 0.0117 -4.1944 -0.0248 -0.0128176 0.00232552 8.52707e-005 0.0071 -2.3249 -0.0142 9.93923e-017 5.96354e-016 -0 0.6113 -8.7231 -2.0637 9.93923e-017 -1.98785e-016 -1.59028e-015 -0.1927 -3.8059 -0.2383 -0.0160551 0.00299681 0.000857156 -0.1091 -2.1688 -0.1362 -2.48481e-016 0 3.18055e-015 -0.6151 -8.0947 -3.5641 9.93923e-017 -1.98785e-016 -1.59028e-015 -0.4882 -2.341 -0.6462 -0.0125865 0.0031206 0.00282719 -0.3575 -1.7167 -0.4742 0 1.98785e-016 -0 -1.42 -1.8761 1.4223 9.93923e-017 -1.98785e-016 -1.59028e-015 -1.1471 -3.4929 2.6334 9.93923e-017 -5.96354e-016 -1.59028e-015 -0.823 -2.3 1.6571 -9.93923e-017 -5.96354e-016 -1.59028e-015 -2.2603 21.606 7.4023 -0.865644 0.16582 7.03859 -13.5187 -1.1334 -5.0155 -88.0329 10.2057 -10.5567 0.0994 -28.0499 -0.2431 0.0015593 -0.00248883 -0.000788628 -0.0679 -23.3996 -0.1402 7.87605e-005 4.10553e-005 1.24965e-005 -0.7932 -9.0691 2.5189 -3.97569e-016 -7.95139e-016 3.18055e-015 0.8272 -3.3923 0.5977 -1.98785e-016 -3.97569e-016 3.18055e-015 0.565 -2.3158 0.4082 -1.98785e-016 0 3.18055e-015 -0.916 -9.2044 0.2193 -3.97569e-016 -7.95139e-016 3.18055e-015 -0.0117 -4.1944 -0.0248 0.0129473 0.00231697 -8.70038e-005 -0.0071 -2.3249 -0.0142 9.93923e-017 -7.95139e-016 1.59028e-015 -0.6113 -8.7231 -2.0637 -3.97569e-016 -7.95139e-016 3.18055e-015 0.1927 -3.8059 -0.2383 0.0163314 0.00303369 -0.000872333 0.1091 -2.1688 -0.1362 3.97569e-016 7.95139e-016 -3.18055e-015 0.6151 -8.0947 -3.564 -3.97569e-016 -7.95139e-016 3.18055e-015 0.4882 -2.341 -0.6462 0.0145763 0.00367772 -0.00326275 0.3574 -1.7166 -0.4742 9.93923e-017 -3.97569e-016 -0 1.4199 -1.8761 1.4221 -3.97569e-016 -7.95139e-016 3.18055e-015 1.1472 -3.4929 2.6336 -1.98785e-016 -3.97569e-016 3.18055e-015 0.8229 -2.3 1.6571 -1.98785e-016 0 3.18055e-015 -9.412 3.9771 -0.7758 3.42482 1.32465 -0.0626183 -0.7531 -40.938 0 0.000117508 0.717283 0.000978199 0 -40.1986 0 -3.4257 -2.04197 -0.0604716 8.88178e-016 -4.4182 9.239 6.47761e-025 0 -0 9.4119 3.9773 -0.7758 -3.42483 1.34017 0.0627307 0.7532 -40.9383 -2.22045e-016 -0.000193936 0.682302 -0.0013703 -8.88179e-016 -40.1986 0 3.42574 -2.02253 0.0595886 -8.88178e-016 -4.4182 9.239 -8.45714e-024 0 -7.40531e-025 
39.8405 14.0888 -1.80242 -0.00885383 -58.9983 179.995 0 8.7983 -4.7612 -0.183797 8.09197 -0.142317 0 8.0291 0.4195 -0.352414 16.1843 -0.262092 0 9.9351 -2.2114 -0.352415 16.1844 -0.262092 0 22.3885 -0.4656 1.94181e-006 -33.0001 1.33879e-006 -0.0001 12.643 3.4389 -1.75736e-008 -15.0017 1.45421e-007 2.2603 21.606 7.4023 3.90468 -14.9299 -88.0666 13.5163 -1.1332 -5.0146 86.3344 23.3467 15.6777 -0.0995 -28.05 -0.2431 -1.43875 -10.7417 11.3344 0.0679 -23.3996 -0.1402 63.7433 -11.9778 20.869 0.7932 -9.069 2.5189 1.59028e-015 1.10497e-006 7.15625e-015 -0.8272 -3.3923 0.5977 -7.39418e-007 -1.09304e-005 -9.5481e-006 -0.5649 -2.3158 0.4082 -1.59028e-015 -1.27222e-014 -6.36111e-015 0.9159 -9.2044 0.2193 1.59028e-015 1.10497e-006 7.15625e-015 0.0117 -4.1944 -0.0248 -0.0127684 0.00231153 7.11359e-005 0.0071 -2.3249 -0.0142 2.79445e-007 5.5453e-006 8.17712e-006 0.6113 -8.7231 -2.0637 1.59028e-015 1.10497e-006 7.15625e-015 -0.1927 -3.8059 -0.2383 -0.0160222 0.00298411 0.000845997 -0.1091 -2.1688 -0.1362 0 3.18055e-015 -0 -0.6151 -8.0947 -3.5641 1.59028e-015 1.10497e-006 7.15625e-015 -0.4882 -2.341 -0.6462 -0.0125851 0.00312343 0.00282583 -0.3575 -1.7167 -0.4742 8.60638e-006 -4.54324e-006 -6.09996e-006 -1.42 -1.8761 1.4223 1.59028e-015 1.10497e-006 7.15625e-015 -1.1471 -3.4929 2.6334 -7.39418e-007 -1.09304e-005 -9.5481e-006 -0.823 -2.3 1.6571 -1.59028e-015 -1.27222e-014 -6.36111e-015 -2.2603 21.606 7.4023 -1.99509 -10.4798 52.2307 -13.5187 -1.1334 -5.0155 -91.9791 -28.1032 -14.2195 0.0994 -28.0499 -0.2431 -3.92611 -3.35608 -12.194 -0.0679 -23.3996 -0.1402 -65.0602 -7.53516 -14.1011 -0.7932 -9.0691 2.5189 -3.18055e-015 3.18055e-015 2.78299e-015 0.8272 -3.3923 0.5977 -4.77083e-015 3.18055e-015 1.19271e-015 0.565 -2.3158 0.4082 -3.18055e-015 3.18055e-015 5.56597e-015 -0.916 -9.2044 0.2193 -3.18055e-015 3.18055e-015 2.78299e-015 -0.0117 -4.1944 -0.0248 0.0129191 0.00230366 -8.22128e-005 -0.0071 -2.3249 -0.0142 3.08973e-031 3.18055e-015 -5.56597e-015 -0.6113 -8.7231 -2.0637 -3.18055e-015 3.18055e-015 2.78299e-015 0.1927 -3.8059 -0.2383 0.01631 0.00303095 -0.000870713 0.1091 -2.1688 -0.1362 -1.59028e-015 3.18055e-015 -3.97569e-015 0.6151 -8.0947 -3.564 -3.18055e-015 3.18055e-015 2.78299e-015 0.4882 -2.341 -0.6462 0.0146029 0.00367188 -0.00326147 0.3574 -1.7166 -0.4742 4.77083e-015 -3.18055e-015 7.15625e-015 1.4199 -1.8761 1.4221 -3.18055e-015 3.18055e-015 2.78299e-015 1.1472 -3.4929 2.6336 -4.77083e-015 3.18055e-015 1.19271e-015 0.8229 -2.3 1.6571 -3.18055e-015 3.18055e-015 5.56597e-015 -9.412 3.9771 -0.7758 -145.448 -9.93127 -171.416 -0.7531 -40.938 0 -146.591 62.2654 144.317 7.10543e-015 -40.1986 0 -10.3596 -9.62058 -3.47441 0 -4.4182 9.239 7.95139e-016 -1.91243e-009 1.27222e-014 9.4119 3.9773 -0.7758 145.446 -9.95088 171.385 0.7532 -40.9383 0 146.673 62.2731 -144.409 0 -40.1986 0 10.3374 -9.65234 3.43545 0 -4.4182 9.239 2.09789e-006 -3.04916e-007 -2.79006e-006 
39.8398 13.8644 -1.70427 -0.00872352 -58.2707 179.995 0 8.7983 -4.7612 -0.184259 8.09196 -0.142038 7.10543e-015 8.0291 0.4195 -0.353392 16.1843 -0.261457 0 9.9351 -2.2114 -0.353393 16.1844 -0.261458 -7.10543e-015 22.3885 -0.4656 9.63726e-007 -33.0508 6.28846e-007 -0.0001 12.643 3.4389 2.73983e-008 -15.0613 1.23463e-007 2.2603 21.606 7.4023 3.77635 -14.4405 -86.8836 13.5163 -1.1332 -5.0146 86.6007 21.6526 15.4787 -0.0995 -28.05 -0.2431 -1.38368 -10.219 11.3766 0.0679 -23.3996 -0.1402 62.7908 -12.0606 20.5264 0.793199 -9.06901 2.5189 1.59028e-015 0 3.97569e-015 -0.827199 -3.3923 0.5977 3.56626e-006 1.0774e-006 -6.24714e-006 -0.564899 -2.3158 0.4082 5.11769e-006 1.37332e-006 -5.66732e-006 0.915899 -9.20441 0.2193 1.59028e-015 0 3.97569e-015 0.0117 -4.1944 -0.0248 -0.0128036 0.0023197 7.64742e-005 0.00709999 -2.3249 -0.0142 -1.59028e-015 -6.36111e-015 7.95139e-016 0.611299 -8.72311 -2.0637 1.59028e-015 0 3.97569e-015 -0.1927 -3.8059 -0.2383 -0.0159987 0.00298163 0.000845836 -0.1091 -2.1688 -0.1362 -8.99846e-007 1.17346e-005 8.96381e-006 -0.615099 -8.09471 -3.5641 1.59028e-015 0 3.97569e-015 -0.4882 -2.341 -0.6462 -0.0125132 0.00309745 0.00279249 -0.3575 -1.7167 -0.4742 -1.16239e-006 7.45102e-006 6.63821e-006 -1.42 -1.8761 1.4223 1.59028e-015 0 3.97569e-015 -1.1471 -3.4929 2.6334 3.56626e-006 1.0774e-006 -6.24714e-006 -0.822999 -2.3 1.6571 5.11769e-006 1.37332e-006 -5.66732e-006 -2.2603 21.606 7.4023 -1.9549 -10.4018 53.9673 -13.5187 -1.1334 -5.0155 -91.7068 -25.874 -14.1465 0.0994 -28.0499 -0.2431 -3.58565 -3.91177 -12.1775 -0.0679 -23.3996 -0.1402 -64.5067 -7.5994 -13.8387 -0.7932 -9.06911 2.5189 1.59028e-015 3.18055e-015 -4.77083e-015 0.8272 -3.3923 0.5977 -1.59028e-015 9.54166e-015 -0 0.565 -2.3158 0.4082 1.76556e-031 3.18055e-015 -3.18055e-015 -0.916 -9.20441 0.2193 1.59028e-015 3.18055e-015 -4.77083e-015 -0.0117 -4.1944 -0.0248 0.0129628 0.00233503 -9.41729e-005 -0.0071 -2.3249 -0.0142 -3.18055e-015 -3.18055e-015 -3.18055e-015 -0.6113 -8.72311 -2.0637 1.59028e-015 3.18055e-015 -4.77083e-015 0.1927 -3.8059 -0.2383 0.0163436 0.00305194 -0.000885104 0.1091 -2.1688 -0.1362 4.77083e-015 0 -3.97569e-015 0.6151 -8.09471 -3.564 1.59028e-015 3.18055e-015 -4.77083e-015 0.4882 -2.341 -0.6462 0.0145704 0.00368427 -0.00327107 0.3574 -1.7166 -0.4742 4.77083e-015 3.18055e-015 -0 1.4199 -1.8761 1.4221 1.59028e-015 3.18055e-015 -4.77083e-015 1.1472 -3.4929 2.6336 -1.59028e-015 9.54166e-015 -0 0.8229 -2.3 1.6571 1.76556e-031 3.18055e-015 -3.18055e-015 -9.412 3.9771 -0.7758 -144.832 -9.91475 -171.456 -0.7531 -40.938 -1.77636e-015 -146.618 62.2483 144.352 -1.42109e-014 -40.1986 0 -11.1173 -9.43039 -3.02469 0 -4.4182 9.239 -5.05838e-007 5.54744e-006 1.01752e-005 9.4119 3.9773 -0.7758 144.57 -9.80439 171.538 0.7532 -40.9383 -3.55271e-015 146.699 62.257 -144.446 0 -40.1986 0 11.3517 -9.49019 2.81559 -3.55271e-015 -4.4182 9.239 4.65583e-007 -3.57693e-007 -2.69675e-006 
39.8392 13.6413 -1.60576 -0.00857641 -57.5493 179.995 0 8.7983 -4.7612 -0.184718 8.09191 -0.141754 7.10543e-015 8.0291 0.4195 -0.354366 16.1843 -0.260813 7.10543e-015 9.9351 -2.2114 -0.354367 16.1843 -0.260813 0 22.3885 -0.4656 2.04707e-006 -33.1015 1.25739e-006 -0.0001 12.643 3.4389 2.58442e-007 -15.1208 2.09041e-007 2.2603 21.606 7.4023 3.63762 -13.9527 -85.6994 13.5163 -1.1332 -5.0146 86.8587 19.9514 15.2897 -0.0995 -28.05 -0.2431 -1.32908 -9.69592 11.4182 0.0679 -23.3996 -0.1402 61.8366 -12.1379 20.1818 0.7932 -9.069 2.5189 3.18055e-015 6.36111e-015 -8.74653e-015 -0.8272 -3.3923 0.5977 3.53113e-031 1.27222e-014 -1.59028e-015 -0.5649 -2.3158 0.4082 -1.59028e-015 1.27222e-014 -4.77083e-015 0.915899 -9.2044 0.2193 3.18055e-015 6.36111e-015 -8.74653e-015 0.0117 -4.1944 -0.0248 -0.0128066 0.00232741 9.42011e-005 0.0071 -2.3249 -0.0142 9.25191e-006 -9.47122e-006 -1.34261e-005 0.6113 -8.7231 -2.0637 3.18055e-015 6.36111e-015 -8.74653e-015 -0.1927 -3.8059 -0.2383 -0.0160414 0.00300263 0.00085723 -0.1091 -2.1688 -0.1362 1.40713e-005 -4.19215e-007 -3.49579e-006 -0.6151 -8.0947 -3.5641 3.18055e-015 6.36111e-015 -8.74653e-015 -0.4882 -2.341 -0.6462 -0.012576 0.00312045 0.00282743 -0.3575 -1.7167 -0.4742 2.03556e-006 1.42735e-006 -3.8919e-006 -1.42 -1.8761 1.4223 3.18055e-015 6.36111e-015 -8.74653e-015 -1.1471 -3.4929 2.6334 3.53113e-031 1.27222e-014 -1.59028e-015 -0.823 -2.3 1.6571 -1.59028e-015 1.27222e-014 -4.77083e-015 -2.2603 21.606 7.4023 -1.91703 -10.3224 55.7098 -13.5187 -1.1334 -5.0155 -91.4401 -23.6306 -14.0857 0.0994 -28.0499 -0.2431 -3.24535 -4.46774 -12.1576 -0.0679 -23.3996 -0.1402 -63.9524 -7.66108 -13.5755 -0.7932 -9.0691 2.5189 -7.95139e-015 6.36111e-015 5.56597e-015 0.8272 -3.3923 0.5977 -4.77083e-015 0 1.59028e-015 0.565 -2.3158 0.4082 -3.18055e-015 0 2.38542e-015 -0.916 -9.2044 0.2193 -7.95139e-015 6.36111e-015 5.56597e-015 -0.0117 -4.1944 -0.0248 0.0129696 0.00231442 -8.93137e-005 -0.0071 -2.3249 -0.0142 1.59028e-015 6.36111e-015 5.56597e-015 -0.6113 -8.7231 -2.0637 -7.95139e-015 6.36111e-015 5.56597e-015 0.1927 -3.8059 -0.2383 0.0163175 0.0030224 -0.00087008 0.1091 -2.1688 -0.1362 -1.57883e-006 -2.80786e-006 -5.49406e-007 0.6151 -8.0947 -3.564 -7.95139e-015 6.36111e-015 5.56597e-015 0.4882 -2.341 -0.6462 0.014597 0.00368481 -0.0032726 0.3574 -1.7166 -0.4742 -3.18055e-015 3.18055e-015 9.54166e-015 1.4199 -1.8761 1.4221 -7.95139e-015 6.36111e-015 5.56597e-015 1.1472 -3.4929 2.6336 -4.77083e-015 0 1.59028e-015 0.8229 -2.3 1.6571 -3.18055e-015 0 2.38542e-015 -9.412 3.9771 -0.7758 -144.215 -9.89805 -171.496 -0.7531 -40.938 3.55271e-015 -146.647 62.2306 144.389 0 -40.1986 0 -11.8774 -9.24598 -2.57229 -1.42109e-014 -4.4182 9.239 -3.72823e-006 3.40874e-007 2.88305e-006 9.4119 3.9773 -0.7758 143.694 -9.65924 171.693 0.7532 -40.9383 0 146.726 62.2401 -144.485 0 -40.1986 0 12.3697 -9.33861 2.19201 3.55271e-015 -4.4182 9.239 2.06247e-006 1.10973e-006 4.6891e-006 
